<svg width="225" height="32" viewBox="0 0 225 32" fill="none" xmlns="http://www.w3.org/2000/svg">
<g clip-path="url(#clip0_760_17331)">
<path d="M165.399 4.68555H155.586C155.09 4.68528 154.604 4.82219 154.182 5.08111C153.759 5.34003 153.416 5.71087 153.191 6.15256C152.965 6.55525 152.846 7.00967 152.846 7.47186V26.4054C152.846 27.1203 153.13 27.806 153.635 28.3115C154.141 28.817 154.826 29.1011 155.541 29.1011C156.256 29.1011 156.942 28.817 157.448 28.3115C157.953 27.806 158.237 27.1203 158.237 26.4054V20.4691H165.399C167.451 20.4092 169.399 19.5518 170.83 18.0788C172.261 16.6059 173.061 14.6334 173.061 12.5801C173.061 10.5268 172.261 8.55431 170.83 7.08137C169.399 5.60844 167.451 4.75102 165.399 4.69114V4.68555ZM165.399 15.08H158.237V10.078H165.399C166.062 10.078 166.698 10.3415 167.167 10.8105C167.636 11.2796 167.9 11.9157 167.9 12.579C167.9 13.2423 167.636 13.8784 167.167 14.3474C166.698 14.8165 166.062 15.08 165.399 15.08Z" fill="#E00C1A"/>
<path d="M191.221 4.68555H181.406C180.91 4.686 180.424 4.82319 180.001 5.08201C179.578 5.34083 179.235 5.71126 179.009 6.15256C178.782 6.55525 178.663 7.00967 178.663 7.47186V26.4054C178.663 27.1203 178.947 27.806 179.453 28.3115C179.958 28.817 180.644 29.1011 181.359 29.1011C182.074 29.1011 182.759 28.817 183.265 28.3115C183.77 27.806 184.054 27.1203 184.054 26.4054V20.4691H191.216C193.269 20.4092 195.217 19.5518 196.647 18.0788C198.078 16.6059 198.878 14.6334 198.878 12.5801C198.878 10.5268 198.078 8.55431 196.647 7.08137C195.217 5.60844 193.269 4.75102 191.216 4.69114L191.221 4.68555ZM191.221 15.08H184.059V10.078H191.221C191.884 10.078 192.52 10.3415 192.989 10.8105C193.458 11.2796 193.721 11.9157 193.721 12.579C193.721 13.2423 193.458 13.8784 192.989 14.3474C192.52 14.8165 191.884 15.08 191.221 15.08Z" fill="#E00C1A"/>
<path d="M218.205 14.4766C214.787 13.5199 211.403 13.192 211.403 11.386C211.403 9.83949 213.046 9.37846 214.36 9.37846C215.815 9.37846 217.353 9.79809 217.917 10.9898C218.125 11.671 218.57 12.2549 219.173 12.6353C219.775 13.0157 220.493 13.1674 221.198 13.0628C221.902 12.9582 222.546 12.6043 223.012 12.0653C223.477 11.5264 223.734 10.8382 223.735 10.126C223.737 9.61621 223.606 9.11479 223.355 8.67125C223.355 8.67125 223.355 8.67125 223.348 8.66342C223.302 8.58011 223.25 8.49942 223.195 8.42171C221.546 5.81444 218.192 4.64844 214.851 4.64844C210.446 4.64844 205.288 6.65145 205.288 11.7798C205.288 16.0858 208.803 17.5986 212.156 18.5509C215.541 19.501 218.892 19.8937 218.892 21.9661C218.892 23.7084 216.99 24.3641 215.146 24.3641C213.177 24.3641 211.717 23.8572 211.071 22.4014C211.071 22.4014 211.071 22.4014 211.064 22.3936C210.88 22.0001 210.612 21.6514 210.279 21.3717C209.947 21.092 209.557 20.8881 209.138 20.774C208.719 20.66 208.28 20.6386 207.851 20.7113C207.423 20.784 207.015 20.949 206.657 21.195C206.299 21.441 205.998 21.7619 205.777 22.1357C205.555 22.5094 205.417 22.9269 205.373 23.3592C205.329 23.7915 205.379 24.2282 205.521 24.639C205.663 25.0498 205.892 25.4249 206.193 25.7383C208.04 28.0882 211.279 29.0953 214.785 29.0953C219.944 29.0953 225.003 27.193 225.003 21.241C225 17.0056 221.583 15.4267 218.205 14.4766Z" fill="#E00C1A"/>
<path d="M135.982 6.20495C135.754 5.77047 135.411 5.40661 134.991 5.15262C134.571 4.89862 134.089 4.76414 133.599 4.76367C133.106 4.76451 132.624 4.90064 132.204 5.15719C131.783 5.41374 131.442 5.78084 131.216 6.21837L121.339 25.1855C121.176 25.4985 121.076 25.8407 121.045 26.1923C121.014 26.544 121.053 26.8983 121.159 27.235C121.373 27.9151 121.848 28.4822 122.481 28.8116C123.113 29.141 123.85 29.2058 124.53 28.9916C124.867 28.8856 125.18 28.7143 125.45 28.4874C125.721 28.2606 125.944 27.9827 126.107 27.6696L133.604 13.2681L141.131 27.673C141.358 28.108 141.7 28.4724 142.12 28.7265C142.54 28.9806 143.022 29.1147 143.513 29.1143C143.946 29.1155 144.373 29.0107 144.756 28.8088C145.069 28.6457 145.348 28.4224 145.574 28.1517C145.801 27.881 145.973 27.5682 146.078 27.2312C146.184 26.8942 146.222 26.5397 146.191 26.1879C146.16 25.8361 146.059 25.4939 145.895 25.181L135.982 6.20495Z" fill="#E00C1A"/>
<path d="M116.066 8.39171H116.06C116.265 8.04051 116.374 7.64135 116.376 7.23448C116.378 6.82762 116.273 6.42742 116.071 6.07425C115.857 5.69709 115.543 5.38636 115.164 5.17644C114.785 4.96653 114.355 4.8656 113.922 4.88482C113.489 4.90405 113.07 5.04268 112.711 5.28538C112.351 5.52808 112.066 5.86539 111.887 6.26001L107.94 13.2292L103.925 6.12797C103.919 6.11566 103.914 6.10223 103.906 6.08992C103.764 5.80443 103.566 5.55076 103.323 5.34435C103.08 5.13795 102.798 4.98312 102.493 4.88928C102.189 4.79545 101.868 4.76457 101.551 4.79853C101.234 4.83249 100.928 4.93058 100.65 5.08682C100.372 5.24307 100.129 5.4542 99.9351 5.70739C99.7414 5.96057 99.6013 6.25051 99.5232 6.55956C99.4452 6.86861 99.4308 7.19031 99.481 7.50509C99.5312 7.81987 99.6449 8.12114 99.8152 8.39059H99.8062L105.058 17.1188V26.2846C105.05 26.6681 105.119 27.0493 105.261 27.4058C105.402 27.7624 105.614 28.0871 105.882 28.361C106.151 28.6349 106.471 28.8525 106.825 29.0011C107.179 29.1496 107.558 29.2262 107.942 29.2262C108.326 29.2262 108.705 29.1496 109.059 29.0011C109.413 28.8525 109.733 28.6349 110.002 28.361C110.27 28.0871 110.482 27.7624 110.623 27.4058C110.765 27.0493 110.834 26.6681 110.826 26.2846V17.1244L116.066 8.39171Z" fill="black" stroke="black" stroke-miterlimit="10"/>
<path d="M66.3332 4.77734C65.9792 4.77749 65.6287 4.84736 65.3017 4.98297C64.9747 5.11857 64.6776 5.31726 64.4274 5.56768C64.1772 5.8181 63.9788 6.11535 63.8434 6.44246C63.7081 6.76957 63.6385 7.12014 63.6387 7.47414V26.4077C63.653 27.1129 63.9433 27.7845 64.4472 28.2782C64.951 28.7719 65.6284 29.0484 66.3338 29.0484C67.0392 29.0484 67.7165 28.7719 68.2204 28.2782C68.7243 27.7845 69.0145 27.1129 69.0289 26.4077V7.47078C69.0283 6.75623 68.744 6.07115 68.2386 5.5661C67.7331 5.06104 67.0478 4.77734 66.3332 4.77734Z" fill="black" stroke="black" stroke-miterlimit="10"/>
<path d="M92.2796 23.7489H85.024V7.47076C85.024 6.75849 84.7411 6.0754 84.2374 5.57175C83.7338 5.0681 83.0507 4.78516 82.3384 4.78516C81.6262 4.78516 80.9431 5.0681 80.4394 5.57175C79.9358 6.0754 79.6528 6.75849 79.6528 7.47076V26.4569C79.6537 27.1713 79.9383 27.8562 80.444 28.3608C80.9497 28.8655 81.6352 29.1487 82.3496 29.1481H92.2796C92.9861 29.1337 93.6588 28.843 94.1533 28.3382C94.6478 27.8335 94.9248 27.1551 94.9248 26.4485C94.9248 25.7419 94.6478 25.0634 94.1533 24.5587C93.6588 24.054 92.9861 23.7633 92.2796 23.7489Z" fill="black" stroke="black" stroke-miterlimit="10"/>
<path d="M12.215 4.75195H2.81541C2.06921 4.75166 1.35343 5.04772 0.825473 5.57505C0.297514 6.10238 0.000593342 6.8178 0 7.56401L0 26.3453L0.00671401 26.3521V26.3823C0.00671395 27.108 0.29493 27.804 0.80799 28.3173C1.32105 28.8306 2.01695 29.1191 2.74267 29.1193C2.75498 29.1193 2.76841 29.1193 2.78296 29.1193H12.215C15.4257 29.0886 18.4944 27.7916 20.7538 25.5103C23.0133 23.2291 24.2808 20.1481 24.2808 16.9373C24.2808 13.7265 23.0133 10.6456 20.7538 8.36432C18.4944 6.0831 15.4257 4.78608 12.215 4.75531V4.75195ZM12.215 23.4919H5.62187V10.3727H12.215C13.9544 10.3727 15.6226 11.0637 16.8526 12.2936C18.0825 13.5236 18.7735 15.1918 18.7735 16.9312C18.7735 18.6706 18.0825 20.3388 16.8526 21.5687C15.6226 22.7987 13.9544 23.4896 12.215 23.4896V23.4919Z" fill="black" stroke="black" stroke-miterlimit="10"/>
<path d="M44.9702 6.20495C44.742 5.77056 44.3995 5.40674 43.9797 5.15274C43.5598 4.89875 43.0786 4.76422 42.5879 4.76367C42.0956 4.76451 41.613 4.90064 41.1929 5.15719C40.7727 5.41374 40.4312 5.78084 40.2055 6.21837L30.3247 25.1799C29.9953 25.812 29.9305 26.5491 30.1446 27.229C30.3586 27.909 30.834 28.476 31.4661 28.8054C32.0983 29.1349 32.8354 29.1997 33.5153 28.9856C34.1952 28.7716 34.7623 28.2962 35.0917 27.6641L42.589 13.2625L50.1121 27.6674C50.3397 28.1028 50.6824 28.4674 51.1028 28.7215C51.5233 28.9756 52.0054 29.1095 52.4967 29.1087C52.9294 29.1098 53.3559 29.0049 53.7387 28.8032C54.0518 28.6399 54.3297 28.4165 54.5563 28.1457C54.783 27.8749 54.954 27.5621 55.0596 27.2251C55.1652 26.8881 55.2033 26.5336 55.1717 26.1819C55.1402 25.8302 55.0396 25.4882 54.8756 25.1754L44.9702 6.20495Z" fill="black" stroke="black" stroke-miterlimit="10"/>
</g>
<defs>
<clipPath id="clip0_760_17331">
<rect width="225" height="31.5861" fill="white" transform="translate(0 0.414062)"/>
</clipPath>
</defs>
</svg>
